<svg width="98" height="98" viewBox="0 0 98 98" fill="none" xmlns="http://www.w3.org/2000/svg">
<path d="M49.6031 43.9275C49.5315 43.836 49.44 43.762 49.3356 43.7111C49.2311 43.6602 49.1164 43.6338 49.0002 43.6338C48.884 43.6338 48.7693 43.6602 48.6649 43.7111C48.5604 43.762 48.4689 43.836 48.3973 43.9275L37.6785 57.4887C37.5902 57.6015 37.5353 57.737 37.5203 57.8795C37.5053 58.022 37.5307 58.1659 37.5936 58.2947C37.6565 58.4235 37.7543 58.532 37.876 58.6077C37.9976 58.6835 38.1381 58.7236 38.2815 58.7232H45.3539V81.9217C45.3539 82.3428 45.6985 82.6873 46.1196 82.6873H51.8617C52.2828 82.6873 52.6274 82.3428 52.6274 81.9217V58.7328H59.719C60.3602 58.7328 60.7143 57.9959 60.3219 57.4983L49.6031 43.9275Z" fill="#C4C4C4"/>
<path d="M77.6535 35.0943C73.2703 23.5334 62.1018 15.3125 49.0191 15.3125C35.9365 15.3125 24.768 23.5238 20.3848 35.0848C12.183 37.2381 6.125 44.7125 6.125 53.5938C6.125 64.1689 14.6904 72.7344 25.2561 72.7344H29.0938C29.5148 72.7344 29.8594 72.3898 29.8594 71.9688V66.2266C29.8594 65.8055 29.5148 65.4609 29.0938 65.4609H25.2561C22.0309 65.4609 18.9971 64.1785 16.7385 61.8529C14.4895 59.5369 13.2932 56.417 13.3984 53.1822C13.4846 50.6557 14.3459 48.2822 15.9059 46.282C17.5041 44.2436 19.7436 42.7602 22.2318 42.0998L25.859 41.1523L27.1893 37.6496C28.0123 35.4676 29.1607 33.4291 30.6059 31.582C32.0325 29.7513 33.7225 28.142 35.6207 26.8064C39.5541 24.0406 44.1861 22.5764 49.0191 22.5764C53.8521 22.5764 58.4842 24.0406 62.4176 26.8064C64.3221 28.1463 66.0064 29.7541 67.4324 31.582C68.8775 33.4291 70.026 35.4771 70.849 37.6496L72.1697 41.1428L75.7873 42.0998C80.9744 43.4971 84.6016 48.2152 84.6016 53.5938C84.6016 56.7615 83.367 59.7475 81.1275 61.9869C80.0293 63.0916 78.7228 63.9674 77.2838 64.5638C75.8447 65.1601 74.3017 65.465 72.7439 65.4609H68.9062C68.4852 65.4609 68.1406 65.8055 68.1406 66.2266V71.9688C68.1406 72.3898 68.4852 72.7344 68.9062 72.7344H72.7439C83.3096 72.7344 91.875 64.1689 91.875 53.5938C91.875 44.7221 85.8361 37.2572 77.6535 35.0943Z" fill="#C4C4C4"/>
</svg>
